<mxfile host="app.diagrams.net" modified="2024-02-23T08:09:58.441Z" agent="Mozilla/5.0 (X11; Linux x86_64) AppleWebKit/537.36 (KHTML, like Gecko) Chrome/121.0.0.0 Safari/537.36" version="22.1.18" etag="Q6yF8M92RzWPS6_4So_g" type="github">
  <diagram name="Page-1" id="2HosVxl--_S_Rm3T7pNT">
    <mxGraphModel>
      <root>
        <mxCell id="0" />
        <mxCell id="1" parent="0" />
      </root>
    </mxGraphModel>
  </diagram>
</mxfile>
